# xmcd
#
# Track frame offsets:
#	150
#	20746
#	42680
#	55713
#	69322
#	86558
#	98295
#	110692
#	123620
#	133429
#	145550
#	161833
#	172254
#	177800
#	194884
#
# Disc length: 2757 seconds
#
# Revision: 1
# Processed by: cddbd v1.5.1PL0 Copyright (c) Steve Scherf et al.
# Submitted via: CDex 1.50Beta5
#
DISCID=e10ac30f
DTITLE=Various Artist - FalcomSpecialBox'89
DYEAR=1900
DGENRE=GameMusicArrange
TTITLE0=Falcom jdk - 編曲&Key:デビット・マシューズ - Tp:ルー・ソルフ - T-sax:ジョージ・ヤング/魔性の島
TTITLE1=Falcom jdk - 編曲&Key:デビット・マシューズ - Tp:ルー・ソルフ - T-sax:ジョージ・ヤング/ブラッティー・リバー
TTITLE2=Falcom jdk - 編曲&Key:デビット・マシューズ - Tp:ルー・ソルフ - T-sax:ジョージ・ヤング/STAY WITH ME FOREVER
TTITLE3=Falcom jdk - 編曲&Key:デビット・マシューズ - Tp:ルー・ソルフ - T-sax:ジョージ・ヤング/Temple del Sol
TTITLE4=Falcom jdk - 編曲&Key:デビット・マシューズ - Tp:ルー・ソルフ - T-sax:ジョージ・ヤング/LA VALSE POUR XANADU
TTITLE5=Falcom jdk - Vo:森口博子 - 作詞:フィリップ・H・ローズ - 編曲:矢野立美/Josephine
TTITLE6=Falcom jdk - Vo:森口博子 - 作詞:フィリップ・H・ローズ - 編曲:矢野立美/No Fortune Teller
TTITLE7=Falcom jdk - Vo:森口博子 - 作詞:フィリップ・H・ローズ - 編曲:矢野立美/Sorcerian
TTITLE8=Falcom jdk - 編曲&Key:難波弘之 - Dr:小森啓資/SUBTERRANEAN CANAL
TTITLE9=Falcom jdk - 編曲&Key:難波弘之 - Dr:小森啓資/ブラッティー・リバー
TTITLE10=Falcom jdk - 編曲&Key:難波弘之 - Dr:小森啓資/FLY WITH ME
TTITLE11=Falcom jdk - 編曲&Key:難波弘之 - Dr:小森啓資/IN THE MEMORY
TTITLE12=Falcom jdk - 編曲&Key:難波弘之 - Dr:小森啓資/SO MUCH FOR TODAY
TTITLE13=Falcom jdk - 編曲&Key:難波弘之 - Dr:小森啓資/FEENA
TTITLE14=Falcom jdk - 編曲&Key:難波弘之 - Dr:小森啓資/SIGH AND TEAR
EXTD=
EXTT0=
EXTT1=
EXTT2=
EXTT3=
EXTT4=
EXTT5=
EXTT6=
EXTT7=
EXTT8=
EXTT9=
EXTT10=
EXTT11=
EXTT12=
EXTT13=
EXTT14=
PLAYORDER=
